<svg xmlns="http://www.w3.org/2000/svg" width="832.383" height="441.592" viewBox="0 0 832.383 441.592"><g transform="translate(-500.124 -265.039)"><ellipse cx="24" cy="4" fill="#f2f2f2" rx="24" ry="4" transform="translate(1250.061 698.631)"/><path fill="#f2f2f2" d="M1319.78 319.631h2v42h-2z"/><path fill="#d6d6e3" d="M1269.926 421.318h8.27v285.313h-8.27z"/><path fill="#d6d6e3" d="M1311.922 443.716H1236.2a5.858 5.858 0 0 1-5.813-6.584l9.648-77.186a5.87 5.87 0 0 1 5.813-5.131h56.426a5.87 5.87 0 0 1 5.813 5.131l9.648 77.186a5.858 5.858 0 0 1-5.813 6.584"/><circle cx="7" cy="7" r="7" fill="#f2f2f2" transform="translate(1313.78 354.631)"/><path fill="#d6d6e3" d="M584.56 595.495c-5.052 17.526-19.8 29.8-35.191 40.217q-3.223 2.183-6.448 4.266c-.015.006-.03.02-.044.026-.1.066-.207.133-.3.2l-1.328.855.242.109s.237.126-.022.02c-.077-.032-.158-.061-.235-.094-8.939-3.605-18.037-7.476-24.888-14.23-7.107-7.014-11.26-18.014-7.411-27.228a17.6 17.6 0 0 1 1.9-3.419 19 19 0 0 1 1-1.294 18.856 18.856 0 0 1 32.386 5.73c1.13-10.526-7.549-19.343-15.9-25.848s-17.851-13.583-19.467-24.051c-.9-5.824 1.123-11.468 4.812-16q.17-.207.346-.409a27.52 27.52 0 0 1 17.687-9.489c12.813-1.332 25.259 5.451 34.568 14.359 14.979 14.336 24.033 36.353 18.293 56.28"/><path fill="#fff" d="M560.476 572.571a46.8 46.8 0 0 1 5.6 12.361 40.6 40.6 0 0 1 1.4 12 52.04 52.04 0 0 1-6.816 23.685 75 75 0 0 1-11.3 15.1q-3.223 2.183-6.448 4.266c-.015.006-.03.02-.044.026-.1.066-.207.133-.3.2l-1.328.855s.479.235.219.129c-.077-.032-.158-.061-.235-.094a41.04 41.04 0 0 0-30.395-44.877 19 19 0 0 1 1-1.294 43.3 43.3 0 0 1 7.147 2.7 42.42 42.42 0 0 1 19.182 18.493 43.37 43.37 0 0 1 4.723 23.8c.367-.333.735-.673 1.092-1.01 6.793-6.333 12.826-13.6 16.91-21.992a48.4 48.4 0 0 0 5.07-22.907c-.333-8.653-3.781-16.668-8.773-23.646a101.3 101.3 0 0 0-19.21-19.8 115.2 115.2 0 0 0-23.892-14.751.83.83 0 0 1-.417-1.063.7.7 0 0 1 .346-.409.61.61 0 0 1 .532.023c1.054.485 2.1.977 3.139 1.49a116.5 116.5 0 0 1 24.062 15.873c7.086 6.042 13.754 12.941 18.736 20.842"/><path fill="#d6d6e3" d="M511.625 639.631h55.364a4.283 4.283 0 0 1 4.25 4.814l-7.055 56.436a4.29 4.29 0 0 1-4.25 3.752H518.68a4.29 4.29 0 0 1-4.25-3.752l-7.054-56.434a4.283 4.283 0 0 1 4.25-4.814Z"/><circle cx="6.929" cy="6.929" r="6.929" fill="#d6d6e3" transform="translate(685.209 691.207)"/><circle cx="6.929" cy="6.929" r="6.929" fill="#d6d6e3" transform="translate(1122.873 691.207)"/><path fill="#e6e6e6" d="M819.164 601.711H710.615a19.075 19.075 0 0 1-19.054-19.054v-73.906a19.076 19.076 0 0 1 19.054-19.054h108.55a19.076 19.076 0 0 1 19.054 19.054v73.906a19.075 19.075 0 0 1-19.054 19.054Z"/><path fill="#e6e6e6" d="M965.245 602.289H856.7a19.075 19.075 0 0 1-19.054-19.054v-73.906a19.076 19.076 0 0 1 19.054-19.054h108.55a19.076 19.076 0 0 1 19.05 19.054v73.906a19.076 19.076 0 0 1-19.055 19.054"/><path fill="#e6e6e6" d="M1111.325 602.866h-108.55a19.075 19.075 0 0 1-19.054-19.054v-73.906a19.076 19.076 0 0 1 19.054-19.054h108.55a19.075 19.075 0 0 1 19.054 19.054v73.906a19.075 19.075 0 0 1-19.054 19.054"/><path fill="#e6e6e6" d="M674.816 597.67h478.081v99.889H674.816z"/><path fill="#e6e6e6" d="M692.138 698.136h-20.786c-10.506 0-19.054-9.705-19.054-21.634V572.264h39.84Zm458.45 0H1129.8V556.097h39.84v117.626c.002 13.458-8.546 24.413-19.052 24.413"/><path fill="#d6d6e3" d="M838.8 618.456H692.138v-31.175q73.329-42.063 146.658 0Z"/><path fill="#d6d6e3" d="M984.876 619.033H838.218v-31.179q73.329-42.063 146.658 0Z"/><path fill="#d6d6e3" d="M1130.957 619.611H984.3v-31.18q73.329-42.063 146.658 0Z"/><circle cx="34.066" cy="34.066" r="34.066" fill="#d6d6e3" transform="translate(629.78 530.691)"/><circle cx="34.066" cy="34.066" r="34.066" fill="#d6d6e3" transform="translate(1128.647 529.537)"/><path fill="#e6e6e6" d="M1331.589 706.631H501.043a1 1 0 0 1 0-2h830.546a1 1 0 0 1 0 2"/><path fill="#d6d6e3" d="M939.78 393.039h-101a9.01 9.01 0 0 1-9-9v-87a9.01 9.01 0 0 1 9-9h101a9.01 9.01 0 0 1 9 9v87a9.01 9.01 0 0 1-9 9m-101-103a7.01 7.01 0 0 0-7 7v87a7.01 7.01 0 0 0 7 7h101a7.01 7.01 0 0 0 7-7v-87a7.01 7.01 0 0 0-7-7Z"/><path fill="#d6d6e3" d="M925.013 379.539h-71.466a8.51 8.51 0 0 1-8.5-8.5v-61a8.51 8.51 0 0 1 8.5-8.5h71.466a8.51 8.51 0 0 1 8.5 8.5v61a8.51 8.51 0 0 1-8.5 8.5"/><circle cx="5" cy="5" r="5" fill="#f2f2f2" transform="translate(884.78 265.039)"/><path fill="#f2f2f2" d="m900.292 289.553-10.51-17.563-10.45 17.56-1.719-1.022 12.164-20.44 12.231 20.437Z"/><path fill="#3967f7" d="M901.28 333.539a21 21 0 0 0-.5-4.5h-15a4 4 0 0 0-4 4v21.424a20.986 20.986 0 0 0 19.5-20.924"/><path fill="#fff" d="M880.28 355.539a22 22 0 1 1 21.481-26.713l.265 1.213H885.78a3 3 0 0 0-3 3v22.356l-1.1.078c-.466.034-.929.066-1.4.066m0-42a20 20 0 0 0 0 40c.168 0 .334 0 .5-.013v-20.487a5.006 5.006 0 0 1 5-5h13.72a20.115 20.115 0 0 0-19.222-14.5Z"/><path fill="#fff" d="M909.78 362.039h-24a5.006 5.006 0 0 1-5-5v-3.507l.929-.066a19.944 19.944 0 0 0 18.1-24.213l-.265-1.214h10.236a5.006 5.006 0 0 1 5 5v24a5.006 5.006 0 0 1-5 5m-27-6.664v1.664a3 3 0 0 0 3 3h24a3 3 0 0 0 3-3v-24a3 3 0 0 0-3-3h-7.787a22 22 0 0 1 .287 3.5 22.06 22.06 0 0 1-19.5 21.836"/><path fill="#ed9da0" d="M1017.133 495.268c-6.794 1.041-11.765 5.391-11.1 9.715s6.709 6.984 13.506 5.941a17.2 17.2 0 0 0 7.554-2.99l28.736-4.778-1.918-11.357-28.668 4.057a17.2 17.2 0 0 0-8.106-.589Z"/><path fill="#ed9da0" d="m1140.949 459.864-11.141 23.636-56.009 18.854-46.477 2.48-1.061-9.134 50.269-12.563 51.685-24.424Zm-103.301 89.766-9.808 24.807.023.015s3.238 11.741-1.615 13.342-18.352-.534-18.352-.534-24.832 5.339-25.371.534 11.334-5.868 11.334-5.868l15.971-7.471 4.924-8.316-.053-.036 7.647-26.477Z"/><path fill="#ed9da0" d="M967.032 585.511s.677.8 8.131 3.266 7.529-9.933 7.529-9.933l.541-1.468 23.819-21.862-11.179-15.3-24.801 28.74-18.113 13.137-5.29-1.637s-5.448-.173-1.911 6.634c1.021 1.966 3.225 2.666 5.846 2.666 6.454 0 15.428-4.243 15.428-4.243m178.88-127.669-.294-2.06-6.766-13.239-22.36 5.885 4.12 18.242Z"/><path fill="#3f3d56" d="m1019.064 474.427-.186.013-.509-7.03c-.163-2.247-1.616-3.973-3.247-3.855l-10.807.782c-1.63.118-4.631 2.166-4.468 4.413l.131 1.811 2.66 36.755c.163 2.247 3.427 3.842 5.057 3.724l10.807-.782c1.63-.118 2.82-2.035 2.658-4.282l-1.92-26.532.186-.013Z"/><path fill="#fff" d="m1017.743 467.484 2.786 38.509c.121 1.678-.767 3.11-1.985 3.2l-10.858.786c-1.218.088-2.3-1.2-2.425-2.879l-2.786-38.509c-.121-1.678.767-3.11 1.985-3.2l1.317-.1a1.68 1.68 0 0 0 .712 1.841.8.8 0 0 0 .4.078l6.191-.448c.579-.042 1-.724.943-1.521a2 2 0 0 0-.119-.533l1.41-.1c1.222-.091 2.307 1.2 2.429 2.876"/><path fill="#3967f7" d="m1015.991 475.322-9.552.691a.908.908 0 0 1-.131-1.811l9.552-.691a.908.908 0 1 1 .131 1.811m.327 4.527-9.552.691a.908.908 0 1 1-.131-1.811l9.552-.691a.908.908 0 0 1 .131 1.811m.327 4.531-9.552.691a.908.908 0 1 1-.131-1.811l9.552-.691a.908.908 0 0 1 .131 1.811"/><path fill="#2f2e41" d="m1136.501 546.101.688 8.837s2.843 37.057-20.1 40-32.95 5.884-46.483-17.063l-21.182-37.657-12.38 14.721-16.459-12.956s11.768-45.894 21.182-47.659a21.5 21.5 0 0 1 3.512-.355 24.24 24.24 0 0 1 19.8 9.9l26.7 35.764 9.711-4.414z"/><path fill="#2f2e41" d="m1067.068 566.693-40.893-25.766-20.888 18.705-14.122-16.477s25.889-38.245 33.538-40.01a197 197 0 0 1 20.005-2.942l37.658 34.714-15.3 31.773Z"/><ellipse cx="18.829" cy="18.828" fill="#ed9da0" rx="18.829" ry="18.828" transform="translate(1104.725 417.244)"/><path fill="#3967f7" d="m1119.141 462.844 27.066-8.238s10.594 24.712 8.828 35.891-17.847 64.439-17.847 64.439l-35.7-19.723s-.588-11.768-2.353-17.063-7.355-21.476 5-35.009 15-20.3 15-20.3Z"/><g fill="#ed9da0"><path d="M1059.571 586.394c-4.4 5.277-5.253 11.827-1.893 14.63s9.651.8 14.057-4.483a17.2 17.2 0 0 0 3.687-7.241l18.383-22.595-8.954-7.246-18.81 22.009a17.2 17.2 0 0 0-6.467 4.922Z"/><path d="m1139.901 474.715 6.4 25.341-31.313 50.12-33.028 31.241-9.3-7.712 32.239-40.109 24.435-51.68Z"/></g><path fill="#2f2e41" d="M1106.195 432.836c4.829-.011 5.1.021 5.884 0 5.989-.156 7.555-2.514 10.594-2.353 5.418.287-1.733 27.451-4.707 40.01-2.917 12.317 6.941 23.354 7.649 24.124 10 10.883 27.576 12.871 30.594 8.235 2.441-3.751-6.21-9.451-4.119-17.652 2.044-8.014 11.483-7.161 14.121-14.709 2.763-7.906-6.522-11.892-12.356-31.185-3.35-11.079-2.757-13.143-5.884-20.005-8.356-18.341-49.316-10.532-44.717 6.472.89 3.289-1.478 7.071 2.942 7.062Z"/></g></svg>